<svg id="Capa_1" enable-background="new 0 0 24 24" height="24" viewBox="0 0 24 24" width="24" xmlns="http://www.w3.org/2000/svg" xmlns:xlink="http://www.w3.org/1999/xlink"><linearGradient id="SVGID_1_" gradientUnits="userSpaceOnUse" x1="256" x2="256" y1="496" y2="16"><stop offset="0" stop-color="#a93aff"/><stop offset="1" stop-color="#ff81ff"/></linearGradient><g><g><path d="m300 151h45c8.284 0 15-6.716 15-15s-6.716-15-15-15h-30v-30c0-8.284-6.716-15-15-15s-15 6.716-15 15v45c0 8.284 6.716 15 15 15zm0 105c66.168 0 120-53.832 120-120s-53.832-120-120-120-120 53.832-120 120 53.832 120 120 120zm0-210c49.626 0 90 40.374 90 90s-40.374 90-90 90-90-40.374-90-90 40.374-90 90-90zm137 360h-77v-75c0-8.284-6.716-15-15-15-32.236 0-63.374-6.704-92.547-19.924-5.69-2.577-12.381-1.36-16.798 3.056l-14.639 14.638c-41.187-23.055-75.73-57.599-98.786-98.787l14.638-14.638c4.417-4.417 5.635-11.109 3.056-16.798-13.221-29.172-19.924-60.31-19.924-92.547 0-8.284-6.716-15-15-15h-90c-8.284 0-15 6.716-15 15 0 46.568 9.124 91.751 27.118 134.294 17.377 41.084 42.251 77.979 73.93 109.658 31.68 31.68 68.574 56.553 109.658 73.93 42.543 17.994 87.726 27.118 134.294 27.118h92c24.813 0 45 20.187 45 45 0 8.284 6.716 15 15 15s15-6.716 15-15c0-41.355-33.645-75-75-75zm-107-.353c-161.79-7.617-292.03-137.856-299.647-299.647h60.078c1.6 27.722 7.645 54.639 18.043 80.313l-15.304 15.304c-4.58 4.58-5.703 11.582-2.785 17.364 27.387 54.275 72.36 99.248 126.634 126.634 5.783 2.918 12.785 1.794 17.364-2.785l15.305-15.304c25.674 10.398 52.591 16.444 80.313 18.043v60.078z" fill="url(#SVGID_1_)"/></g></g></svg>